<svg width="43" height="26" fill="none" xmlns="http://www.w3.org/2000/svg"><path d="M25.728 12.865c0 7.104-5.76 12.863-12.864 12.863C5.759 25.728 0 19.97 0 12.865 0 5.76 5.759 0 12.864 0c7.104 0 12.864 5.76 12.864 12.864Z" fill="#392E4F"/><path d="M30.137 0a12.816 12.816 0 0 0-8.635 3.33c-.465.422-.9.877-1.3 1.361h2.6c.355.433.683.888.98 1.363h-4.56c-.274.438-.522.893-.741 1.362h6.042c.207.443.39.898.545 1.362h-7.132c-.15.447-.274.901-.373 1.362h7.878a12.922 12.922 0 0 1-.373 6.81h-7.132c.155.464.337.92.545 1.362h6.042a12.9 12.9 0 0 1-.741 1.363h-4.56c.297.474.625.929.98 1.361h2.599c-.4.485-.833.94-1.3 1.363a12.817 12.817 0 0 0 8.636 3.329c7.105 0 12.864-5.76 12.864-12.864 0-7.104-5.76-12.863-12.864-12.863" fill="#43365D"/><path d="M6.827 16.25H5.43l.8-5.016-1.786 5.016h-.952l-.117-4.987-.841 4.987H1.227l1.091-6.524h2.009l.056 4.039 1.355-4.04h2.169l-1.08 6.525Zm3.433-2.364a2.328 2.328 0 0 0-.311-.022c-.792 0-1.192.271-1.192.807 0 .33.195.541.5.541.57 0 .98-.541 1.003-1.326Zm1.016 2.363H10.12l.027-.549c-.353.434-.824.642-1.464.642-.757 0-1.276-.592-1.276-1.45 0-1.292.903-2.046 2.452-2.046a4.7 4.7 0 0 1 .57.041c.042-.175.054-.25.054-.344 0-.352-.243-.482-.896-.482a4.661 4.661 0 0 0-1.478.238l.194-1.193c.695-.204 1.155-.281 1.67-.281 1.2 0 1.836.538 1.835 1.555.002.274-.044.61-.114 1.052-.121.768-.381 2.417-.417 2.817ZM30.008 9.9l-.229 1.417c-.498-.25-.86-.353-1.247-.353-1.043 0-1.774 1.008-1.774 2.445 0 .99.491 1.59 1.303 1.59.344 0 .724-.108 1.186-.336l-.245 1.487c-.514.14-.846.192-1.234.192-1.503 0-2.44-1.081-2.44-2.817 0-2.333 1.294-3.963 3.145-3.963.61 0 1.33.258 1.535.338Zm2.253 3.986a2.323 2.323 0 0 0-.311-.022c-.792 0-1.192.271-1.192.807 0 .33.195.541.5.541.569 0 .98-.541 1.003-1.326Zm1.016 2.363H32.12l.026-.549c-.352.434-.824.642-1.463.642-.757 0-1.276-.592-1.276-1.45 0-1.292.903-2.046 2.452-2.046a4.7 4.7 0 0 1 .569.041c.043-.175.055-.25.055-.344 0-.352-.244-.482-.896-.482a4.665 4.665 0 0 0-1.478.238l.193-1.193c.696-.204 1.155-.281 1.671-.281 1.2 0 1.835.538 1.834 1.555.002.274-.043.61-.113 1.052-.12.768-.382 2.417-.417 2.817Zm-15.794-.08c-.382.12-.68.172-1.003.172-.714 0-1.104-.41-1.104-1.165-.01-.235.104-.852.192-1.415.08-.496.605-3.621.605-3.621h1.388l-.162.803h.713l-.19 1.275h-.715c-.16 1.01-.391 2.266-.394 2.433 0 .275.147.393.479.393.159 0 .282-.016.376-.05l-.185 1.175Zm4.256-.043a4.747 4.747 0 0 1-1.424.215c-1.554-.001-2.364-.813-2.364-2.367 0-1.814 1.03-3.15 2.43-3.15 1.144 0 1.875.748 1.875 1.921 0 .39-.05.77-.171 1.305H19.32c-.093.77.4 1.091 1.207 1.091a3.28 3.28 0 0 0 1.443-.335l-.23 1.32Zm-.78-3.146c.008-.11.148-.947-.646-.947-.442 0-.758.338-.887.947h1.533Zm-8.845-.359c0 .671.326 1.134 1.064 1.482.565.265.653.345.653.585 0 .331-.25.48-.802.48-.417 0-.804-.065-1.252-.209l-.191 1.226c.317.069.6.132 1.453.157 1.474 0 2.154-.561 2.154-1.774 0-.73-.284-1.157-.984-1.479-.586-.27-.653-.328-.653-.576 0-.287.232-.435.683-.435.274 0 .649.03 1.004.081l.198-1.231a9.462 9.462 0 0 0-1.228-.103c-1.563 0-2.103.815-2.099 1.796Zm28.555 3.628h-1.322l.066-.494c-.383.41-.776.586-1.288.586-1.015 0-1.686-.875-1.686-2.201 0-1.766 1.04-3.253 2.273-3.253.541 0 .951.22 1.333.723l.31-1.885h1.377l-1.063 6.524Zm-2.06-1.226c.65 0 1.107-.737 1.107-1.788 0-.674-.26-1.04-.74-1.04-.633 0-1.083.74-1.083 1.783 0 .694.24 1.045.715 1.045Zm-4.074-4.08c-.175 1.643-.485 3.306-.728 4.95l-.064.356h1.397c.5-3.244.62-3.878 1.403-3.798.125-.665.357-1.246.53-1.54-.584-.121-.911.21-1.339.837.034-.271.096-.535.084-.804h-1.283Zm-11.496 0c-.176 1.643-.486 3.306-.729 4.95l-.063.356h1.397c.499-3.244.62-3.878 1.402-3.798.126-.665.358-1.246.53-1.54-.584-.121-.91.21-1.338.837.034-.271.095-.535.083-.804H23.04Zm18.243 4.89a.415.415 0 0 1 .83-.001v.002a.416.416 0 0 1-.83 0Zm.416.316a.316.316 0 0 0 0-.631.316.316 0 0 0 0 .631Zm-.057-.134h-.085v-.364h.155c.031 0 .065 0 .092.018a.11.11 0 0 1 .047.092.1.1 0 0 1-.063.094l.067.16h-.095l-.055-.144h-.063v.144Zm0-.206h.047c.018 0 .037.002.052-.007a.05.05 0 0 0 .022-.042.048.048 0 0 0-.021-.038c-.015-.008-.039-.006-.055-.006h-.045v.093Z" fill="#fff" fill-opacity=".49"/></svg>